<svg width="20" height="20" viewBox="0 0 20 20" fill="none" xmlns="http://www.w3.org/2000/svg">
<path d="M1.66666 1.66663H13.3333V4.99996H18.3333V18.3333H1.66666V1.66663ZM16.6667 6.66663H13.3333V8.33329H15V9.99996H13.3333V11.6666H15V13.3333H13.3333V15H15V16.6666H16.6667V6.66663ZM11.6667 3.33329H3.33332V16.6666H4.99999V15H9.99999V16.6666H11.6667V3.33329ZM4.99999 4.99996H6.66666V6.66663H4.99999V4.99996ZM9.99999 4.99996H8.33332V6.66663H9.99999V4.99996ZM4.99999 8.33329H6.66666V9.99996H4.99999V8.33329ZM9.99999 8.33329H8.33332V9.99996H9.99999V8.33329ZM4.99999 11.6666H6.66666V13.3333H4.99999V11.6666ZM9.99999 11.6666H8.33332V13.3333H9.99999V11.6666Z" fill="white"/>
</svg>
