<svg width="20" height="21" viewBox="0 0 20 21" fill="none" xmlns="http://www.w3.org/2000/svg">
<g clip-path="url(#clip0_348_1460)">
<path d="M1.00003 4.01379C1.00003 2.91379 1.90003 2.01379 3.00003 2.01379H17C17.5305 2.01379 18.0392 2.22451 18.4142 2.59958C18.7893 2.97465 19 3.48336 19 4.01379V18.0138C19 18.5442 18.7893 19.0529 18.4142 19.428C18.0392 19.8031 17.5305 20.0138 17 20.0138H3.00003C2.4696 20.0138 1.96089 19.8031 1.58582 19.428C1.21074 19.0529 1.00003 18.5442 1.00003 18.0138V4.01379ZM3.00003 6.01379V18.0138H17V6.01379H3.00003ZM5.00003 0.0137939H7.00003V2.01379H5.00003V0.0137939ZM13 0.0137939H15V2.01379H13V0.0137939ZM5.00003 9.01379H7.00003V11.0138H5.00003V9.01379ZM5.00003 13.0138H7.00003V15.0138H5.00003V13.0138ZM9.00003 9.01379H11V11.0138H9.00003V9.01379ZM9.00003 13.0138H11V15.0138H9.00003V13.0138ZM13 9.01379H15V11.0138H13V9.01379ZM13 13.0138H15V15.0138H13V13.0138Z" fill="white"/>
</g>
<defs>
<clipPath id="clip0_348_1460">
<rect width="20" height="20" fill="white" transform="translate(3.05176e-05 0.0137939)"/>
</clipPath>
</defs>
</svg>
