<svg width="20" height="21" viewBox="0 0 20 21" fill="none" xmlns="http://www.w3.org/2000/svg">
<path d="M9.36669 9.93327C11.3488 9.93327 12.9556 8.32647 12.9556 6.34438C12.9556 4.36229 11.3488 2.75549 9.36669 2.75549C7.3846 2.75549 5.7778 4.36229 5.7778 6.34438C5.7778 8.32647 7.3846 9.93327 9.36669 9.93327Z" fill="white"/>
<path d="M11.6667 16.4944H15.5556V17.2722H11.6667V16.4944Z" fill="white"/>
<path d="M8.33335 17.6055V19.2722C8.33335 19.4195 8.39188 19.5608 8.49607 19.665C8.60025 19.7692 8.74156 19.8277 8.8889 19.8277H18.3333C18.4807 19.8277 18.622 19.7692 18.7262 19.665C18.8304 19.5608 18.8889 19.4195 18.8889 19.2722V13.7166C18.8889 13.5693 18.8304 13.428 18.7262 13.3238C18.622 13.2196 18.4807 13.1611 18.3333 13.1611H14.4445V12.3444C14.4445 12.1971 14.3859 12.0558 14.2817 11.9516C14.1776 11.8474 14.0362 11.7889 13.8889 11.7889C13.7416 11.7889 13.6003 11.8474 13.4961 11.9516C13.3919 12.0558 13.3333 12.1971 13.3333 12.3444V13.1611H12.2222V11.1722C11.2782 11.018 10.3232 10.94 9.36668 10.9389C7.25712 10.9299 5.17121 11.3831 3.25557 12.2666C2.94028 12.4154 2.6743 12.6515 2.48917 12.9469C2.30404 13.2424 2.20754 13.5847 2.21113 13.9333V17.6055H8.33335ZM17.7778 18.7166H9.44446V14.2722H13.3333V14.5055C13.3333 14.6529 13.3919 14.7942 13.4961 14.8984C13.6003 15.0025 13.7416 15.0611 13.8889 15.0611C14.0362 15.0611 14.1776 15.0025 14.2817 14.8984C14.3859 14.7942 14.4445 14.6529 14.4445 14.5055V14.2722H17.7778V18.7166Z" fill="white"/>
</svg>
