<svg width="20" height="21" viewBox="0 0 20 21" fill="none" xmlns="http://www.w3.org/2000/svg">
<g clip-path="url(#clip0_348_1442)">
<path d="M11.6667 19.9143L16.6667 14.9143M17.5 12.4143C17.1704 12.4143 16.8482 12.512 16.5741 12.6952C16.3 12.8783 16.0864 13.1386 15.9602 13.4431C15.8341 13.7477 15.8011 14.0828 15.8654 14.4061C15.9297 14.7294 16.0884 15.0264 16.3215 15.2594C16.5546 15.4925 16.8516 15.6513 17.1749 15.7156C17.4982 15.7799 17.8333 15.7469 18.1378 15.6207C18.4424 15.4946 18.7027 15.281 18.8858 15.0069C19.0689 14.7328 19.1667 14.4106 19.1667 14.0809M8.33336 19.9143H2.50003V1.58093H17.5V9.91427M2.50003 11.5809H14.1667M2.50003 15.7476H10.8334M2.50003 7.41427H17.5M14.1667 4.08093H15V4.91427H14.1667V4.08093Z" stroke="white" stroke-width="4"/>
</g>
<defs>
<clipPath id="clip0_348_1442">
<rect width="20" height="20" fill="white" transform="translate(3.05176e-05 0.747559)"/>
</clipPath>
</defs>
</svg>
