<svg width="18" height="18" viewBox="0 0 18 18" fill="none" xmlns="http://www.w3.org/2000/svg">
<path d="M7.9499 9.53261C7.8796 9.46288 7.8238 9.37993 7.78573 9.28854C7.74765 9.19714 7.72805 9.09912 7.72805 9.00011C7.72805 8.9011 7.74765 8.80307 7.78573 8.71167C7.8238 8.62028 7.8796 8.53733 7.9499 8.46761L11.3924 5.03261C11.4627 4.96288 11.5185 4.87993 11.5566 4.78854C11.5946 4.69714 11.6142 4.59912 11.6142 4.50011C11.6142 4.4011 11.5946 4.30307 11.5566 4.21167C11.5185 4.12028 11.4627 4.03733 11.3924 3.96761C11.2519 3.82792 11.0618 3.74951 10.8636 3.74951C10.6655 3.74951 10.4754 3.82792 10.3349 3.96761L6.89239 7.41011C6.47104 7.83198 6.23438 8.40385 6.23438 9.00011C6.23438 9.59636 6.47104 10.1682 6.89239 10.5901L10.3349 14.0326C10.4746 14.1712 10.6631 14.2493 10.8599 14.2501C10.9586 14.2507 11.0564 14.2318 11.1478 14.1944C11.2392 14.1571 11.3223 14.1021 11.3924 14.0326C11.4627 13.9629 11.5185 13.8799 11.5566 13.7885C11.5946 13.6971 11.6142 13.5991 11.6142 13.5001C11.6142 13.4011 11.5946 13.3031 11.5566 13.2117C11.5185 13.1203 11.4627 13.0373 11.3924 12.9676L7.9499 9.53261Z" fill="#374957"/>
<line x1="3.5" y1="6" x2="3.5" y2="12" stroke="#374957"/>
</svg>
