<svg width="272" height="56" viewBox="0 0 272 56" fill="none" xmlns="http://www.w3.org/2000/svg">
<path d="M9.32 15.92V44H2.48V15.92H9.32ZM27.8769 21.44C30.4902 21.44 32.5702 22.2933 34.1169 24C35.6902 25.68 36.4769 28 36.4769 30.96V44H29.6769V31.88C29.6769 30.3867 29.2902 29.2267 28.5169 28.4C27.7435 27.5733 26.7035 27.16 25.3969 27.16C24.0902 27.16 23.0502 27.5733 22.2769 28.4C21.5035 29.2267 21.1169 30.3867 21.1169 31.88V44H14.2769V21.68H21.1169V24.64C21.8102 23.6533 22.7435 22.88 23.9169 22.32C25.0902 21.7333 26.4102 21.44 27.8769 21.44ZM51.39 44.32C49.2033 44.32 47.23 43.8533 45.47 42.92C43.7367 41.9867 42.3633 40.6533 41.35 38.92C40.3633 37.1867 39.87 35.16 39.87 32.84C39.87 30.5467 40.3767 28.5333 41.39 26.8C42.4033 25.04 43.79 23.6933 45.55 22.76C47.31 21.8267 49.2833 21.36 51.47 21.36C53.6567 21.36 55.63 21.8267 57.39 22.76C59.15 23.6933 60.5367 25.04 61.55 26.8C62.5633 28.5333 63.07 30.5467 63.07 32.84C63.07 35.1333 62.55 37.16 61.51 38.92C60.4967 40.6533 59.0967 41.9867 57.31 42.92C55.55 43.8533 53.5767 44.32 51.39 44.32ZM51.39 38.4C52.6967 38.4 53.8033 37.92 54.71 36.96C55.6433 36 56.11 34.6267 56.11 32.84C56.11 31.0533 55.6567 29.68 54.75 28.72C53.87 27.76 52.7767 27.28 51.47 27.28C50.1367 27.28 49.03 27.76 48.15 28.72C47.27 29.6533 46.83 31.0267 46.83 32.84C46.83 34.6267 47.2567 36 48.11 36.96C48.99 37.92 50.0833 38.4 51.39 38.4ZM76.7388 37.6L81.5788 21.68H88.8588L80.9388 44H72.4988L64.5788 21.68H71.8988L76.7388 37.6ZM90.3778 32.8C90.3778 30.5067 90.8045 28.4933 91.6578 26.76C92.5378 25.0267 93.7245 23.6933 95.2178 22.76C96.7111 21.8267 98.3778 21.36 100.218 21.36C101.791 21.36 103.164 21.68 104.338 22.32C105.538 22.96 106.458 23.8 107.098 24.84V21.68H113.938V44H107.098V40.84C106.431 41.88 105.498 42.72 104.298 43.36C103.124 44 101.751 44.32 100.178 44.32C98.3645 44.32 96.7111 43.8533 95.2178 42.92C93.7245 41.96 92.5378 40.6133 91.6578 38.88C90.8045 37.12 90.3778 35.0933 90.3778 32.8ZM107.098 32.84C107.098 31.1333 106.618 29.7867 105.658 28.8C104.724 27.8133 103.578 27.32 102.218 27.32C100.858 27.32 99.6978 27.8133 98.7378 28.8C97.8045 29.76 97.3378 31.0933 97.3378 32.8C97.3378 34.5067 97.8045 35.8667 98.7378 36.88C99.6978 37.8667 100.858 38.36 102.218 38.36C103.578 38.36 104.724 37.8667 105.658 36.88C106.618 35.8933 107.098 34.5467 107.098 32.84Z" fill="#2D9CDB"/>
<path d="M143.88 26.96C143.88 28.5867 143.507 30.08 142.76 31.44C142.013 32.7733 140.867 33.8533 139.32 34.68C137.773 35.5067 135.853 35.92 133.56 35.92H129.32V46H122.48V17.92H133.56C135.8 17.92 137.693 18.3067 139.24 19.08C140.787 19.8533 141.947 20.92 142.72 22.28C143.493 23.64 143.88 25.2 143.88 26.96ZM133.04 30.48C134.347 30.48 135.32 30.1733 135.96 29.56C136.6 28.9467 136.92 28.08 136.92 26.96C136.92 25.84 136.6 24.9733 135.96 24.36C135.32 23.7467 134.347 23.44 133.04 23.44H129.32V30.48H133.04ZM154.281 27.4C155.081 26.1733 156.081 25.2133 157.281 24.52C158.481 23.8 159.814 23.44 161.281 23.44V30.68H159.401C157.694 30.68 156.414 31.0533 155.561 31.8C154.708 32.52 154.281 33.8 154.281 35.64V46H147.441V23.68H154.281V27.4ZM185.59 34.48C185.59 35.12 185.55 35.7867 185.47 36.48H169.99C170.097 37.8667 170.537 38.9333 171.31 39.68C172.11 40.4 173.084 40.76 174.23 40.76C175.937 40.76 177.124 40.04 177.79 38.6H185.07C184.697 40.0667 184.017 41.3867 183.03 42.56C182.07 43.7333 180.857 44.6533 179.39 45.32C177.924 45.9867 176.284 46.32 174.47 46.32C172.284 46.32 170.337 45.8533 168.63 44.92C166.924 43.9867 165.59 42.6533 164.63 40.92C163.67 39.1867 163.19 37.16 163.19 34.84C163.19 32.52 163.657 30.4933 164.59 28.76C165.55 27.0267 166.884 25.6933 168.59 24.76C170.297 23.8267 172.257 23.36 174.47 23.36C176.63 23.36 178.55 23.8133 180.23 24.72C181.91 25.6267 183.217 26.92 184.15 28.6C185.11 30.28 185.59 32.24 185.59 34.48ZM178.59 32.68C178.59 31.5067 178.19 30.5733 177.39 29.88C176.59 29.1867 175.59 28.84 174.39 28.84C173.244 28.84 172.27 29.1733 171.47 29.84C170.697 30.5067 170.217 31.4533 170.03 32.68H178.59ZM187.839 34.8C187.839 32.5067 188.265 30.4933 189.119 28.76C189.999 27.0267 191.185 25.6933 192.679 24.76C194.172 23.8267 195.839 23.36 197.679 23.36C199.145 23.36 200.479 23.6667 201.679 24.28C202.905 24.8933 203.865 25.72 204.559 26.76V16.4H211.399V46H204.559V42.8C203.919 43.8667 202.999 44.72 201.799 45.36C200.625 46 199.252 46.32 197.679 46.32C195.839 46.32 194.172 45.8533 192.679 44.92C191.185 43.96 189.999 42.6133 189.119 40.88C188.265 39.12 187.839 37.0933 187.839 34.8ZM204.559 34.84C204.559 33.1333 204.079 31.7867 203.119 30.8C202.185 29.8133 201.039 29.32 199.679 29.32C198.319 29.32 197.159 29.8133 196.199 30.8C195.265 31.76 194.799 33.0933 194.799 34.8C194.799 36.5067 195.265 37.8667 196.199 38.88C197.159 39.8667 198.319 40.36 199.679 40.36C201.039 40.36 202.185 39.8667 203.119 38.88C204.079 37.8933 204.559 36.5467 204.559 34.84ZM219.787 21.36C218.587 21.36 217.601 21.0133 216.827 20.32C216.081 19.6 215.707 18.72 215.707 17.68C215.707 16.6133 216.081 15.7333 216.827 15.04C217.601 14.32 218.587 13.96 219.787 13.96C220.961 13.96 221.921 14.32 222.667 15.04C223.441 15.7333 223.827 16.6133 223.827 17.68C223.827 18.72 223.441 19.6 222.667 20.32C221.921 21.0133 220.961 21.36 219.787 21.36ZM223.187 23.68V46H216.347V23.68H223.187ZM226.784 34.8C226.784 32.5067 227.211 30.4933 228.064 28.76C228.944 27.0267 230.131 25.6933 231.624 24.76C233.117 23.8267 234.784 23.36 236.624 23.36C238.197 23.36 239.571 23.68 240.744 24.32C241.944 24.96 242.864 25.8 243.504 26.84V23.68H250.344V46H243.504V42.84C242.837 43.88 241.904 44.72 240.704 45.36C239.531 46 238.157 46.32 236.584 46.32C234.771 46.32 233.117 45.8533 231.624 44.92C230.131 43.96 228.944 42.6133 228.064 40.88C227.211 39.12 226.784 37.0933 226.784 34.8ZM243.504 34.84C243.504 33.1333 243.024 31.7867 242.064 30.8C241.131 29.8133 239.984 29.32 238.624 29.32C237.264 29.32 236.104 29.8133 235.144 30.8C234.211 31.76 233.744 33.0933 233.744 34.8C233.744 36.5067 234.211 37.8667 235.144 38.88C236.104 39.8667 237.264 40.36 238.624 40.36C239.984 40.36 241.131 39.8667 242.064 38.88C243.024 37.8933 243.504 36.5467 243.504 34.84ZM262.133 16.4V46H255.293V16.4H262.133Z" fill="white"/>
</svg>
