<svg width="307" height="215" viewBox="0 0 307 215" fill="none" xmlns="http://www.w3.org/2000/svg">
<path d="M34.32 148.92V177H27.48V148.92H34.32ZM52.8769 154.44C55.4902 154.44 57.5702 155.293 59.1169 157C60.6902 158.68 61.4769 161 61.4769 163.96V177H54.6769V164.88C54.6769 163.387 54.2902 162.227 53.5169 161.4C52.7435 160.573 51.7035 160.16 50.3969 160.16C49.0902 160.16 48.0502 160.573 47.2769 161.4C46.5035 162.227 46.1169 163.387 46.1169 164.88V177H39.2769V154.68H46.1169V157.64C46.8102 156.653 47.7435 155.88 48.9169 155.32C50.0902 154.733 51.4102 154.44 52.8769 154.44ZM76.39 177.32C74.2033 177.32 72.23 176.853 70.47 175.92C68.7367 174.987 67.3633 173.653 66.35 171.92C65.3633 170.187 64.87 168.16 64.87 165.84C64.87 163.547 65.3767 161.533 66.39 159.8C67.4033 158.04 68.79 156.693 70.55 155.76C72.31 154.827 74.2833 154.36 76.47 154.36C78.6567 154.36 80.63 154.827 82.39 155.76C84.15 156.693 85.5367 158.04 86.55 159.8C87.5633 161.533 88.07 163.547 88.07 165.84C88.07 168.133 87.55 170.16 86.51 171.92C85.4967 173.653 84.0967 174.987 82.31 175.92C80.55 176.853 78.5767 177.32 76.39 177.32ZM76.39 171.4C77.6967 171.4 78.8033 170.92 79.71 169.96C80.6433 169 81.11 167.627 81.11 165.84C81.11 164.053 80.6567 162.68 79.75 161.72C78.87 160.76 77.7767 160.28 76.47 160.28C75.1367 160.28 74.03 160.76 73.15 161.72C72.27 162.653 71.83 164.027 71.83 165.84C71.83 167.627 72.2567 169 73.11 169.96C73.99 170.92 75.0833 171.4 76.39 171.4ZM101.739 170.6L106.579 154.68H113.859L105.939 177H97.4988L89.5788 154.68H96.8988L101.739 170.6ZM115.378 165.8C115.378 163.507 115.804 161.493 116.658 159.76C117.538 158.027 118.724 156.693 120.218 155.76C121.711 154.827 123.378 154.36 125.218 154.36C126.791 154.36 128.164 154.68 129.338 155.32C130.538 155.96 131.458 156.8 132.098 157.84V154.68H138.938V177H132.098V173.84C131.431 174.88 130.498 175.72 129.298 176.36C128.124 177 126.751 177.32 125.178 177.32C123.364 177.32 121.711 176.853 120.218 175.92C118.724 174.96 117.538 173.613 116.658 171.88C115.804 170.12 115.378 168.093 115.378 165.8ZM132.098 165.84C132.098 164.133 131.618 162.787 130.658 161.8C129.724 160.813 128.578 160.32 127.218 160.32C125.858 160.32 124.698 160.813 123.738 161.8C122.804 162.76 122.338 164.093 122.338 165.8C122.338 167.507 122.804 168.867 123.738 169.88C124.698 170.867 125.858 171.36 127.218 171.36C128.578 171.36 129.724 170.867 130.658 169.88C131.618 168.893 132.098 167.547 132.098 165.84Z" fill="#2D9CDB"/>
<path d="M168.88 159.96C168.88 161.587 168.507 163.08 167.76 164.44C167.013 165.773 165.867 166.853 164.32 167.68C162.773 168.507 160.853 168.92 158.56 168.92H154.32V179H147.48V150.92H158.56C160.8 150.92 162.693 151.307 164.24 152.08C165.787 152.853 166.947 153.92 167.72 155.28C168.493 156.64 168.88 158.2 168.88 159.96ZM158.04 163.48C159.347 163.48 160.32 163.173 160.96 162.56C161.6 161.947 161.92 161.08 161.92 159.96C161.92 158.84 161.6 157.973 160.96 157.36C160.32 156.747 159.347 156.44 158.04 156.44H154.32V163.48H158.04ZM179.281 160.4C180.081 159.173 181.081 158.213 182.281 157.52C183.481 156.8 184.814 156.44 186.281 156.44V163.68H184.401C182.694 163.68 181.414 164.053 180.561 164.8C179.708 165.52 179.281 166.8 179.281 168.64V179H172.441V156.68H179.281V160.4ZM210.59 167.48C210.59 168.12 210.55 168.787 210.47 169.48H194.99C195.097 170.867 195.537 171.933 196.31 172.68C197.11 173.4 198.084 173.76 199.23 173.76C200.937 173.76 202.124 173.04 202.79 171.6H210.07C209.697 173.067 209.017 174.387 208.03 175.56C207.07 176.733 205.857 177.653 204.39 178.32C202.924 178.987 201.284 179.32 199.47 179.32C197.284 179.32 195.337 178.853 193.63 177.92C191.924 176.987 190.59 175.653 189.63 173.92C188.67 172.187 188.19 170.16 188.19 167.84C188.19 165.52 188.657 163.493 189.59 161.76C190.55 160.027 191.884 158.693 193.59 157.76C195.297 156.827 197.257 156.36 199.47 156.36C201.63 156.36 203.55 156.813 205.23 157.72C206.91 158.627 208.217 159.92 209.15 161.6C210.11 163.28 210.59 165.24 210.59 167.48ZM203.59 165.68C203.59 164.507 203.19 163.573 202.39 162.88C201.59 162.187 200.59 161.84 199.39 161.84C198.244 161.84 197.27 162.173 196.47 162.84C195.697 163.507 195.217 164.453 195.03 165.68H203.59ZM212.839 167.8C212.839 165.507 213.265 163.493 214.119 161.76C214.999 160.027 216.185 158.693 217.679 157.76C219.172 156.827 220.839 156.36 222.679 156.36C224.145 156.36 225.479 156.667 226.679 157.28C227.905 157.893 228.865 158.72 229.559 159.76V149.4H236.399V179H229.559V175.8C228.919 176.867 227.999 177.72 226.799 178.36C225.625 179 224.252 179.32 222.679 179.32C220.839 179.32 219.172 178.853 217.679 177.92C216.185 176.96 214.999 175.613 214.119 173.88C213.265 172.12 212.839 170.093 212.839 167.8ZM229.559 167.84C229.559 166.133 229.079 164.787 228.119 163.8C227.185 162.813 226.039 162.32 224.679 162.32C223.319 162.32 222.159 162.813 221.199 163.8C220.265 164.76 219.799 166.093 219.799 167.8C219.799 169.507 220.265 170.867 221.199 171.88C222.159 172.867 223.319 173.36 224.679 173.36C226.039 173.36 227.185 172.867 228.119 171.88C229.079 170.893 229.559 169.547 229.559 167.84ZM244.787 154.36C243.587 154.36 242.601 154.013 241.827 153.32C241.081 152.6 240.707 151.72 240.707 150.68C240.707 149.613 241.081 148.733 241.827 148.04C242.601 147.32 243.587 146.96 244.787 146.96C245.961 146.96 246.921 147.32 247.667 148.04C248.441 148.733 248.827 149.613 248.827 150.68C248.827 151.72 248.441 152.6 247.667 153.32C246.921 154.013 245.961 154.36 244.787 154.36ZM248.187 156.68V179H241.347V156.68H248.187ZM251.784 167.8C251.784 165.507 252.211 163.493 253.064 161.76C253.944 160.027 255.131 158.693 256.624 157.76C258.117 156.827 259.784 156.36 261.624 156.36C263.197 156.36 264.571 156.68 265.744 157.32C266.944 157.96 267.864 158.8 268.504 159.84V156.68H275.344V179H268.504V175.84C267.837 176.88 266.904 177.72 265.704 178.36C264.531 179 263.157 179.32 261.584 179.32C259.771 179.32 258.117 178.853 256.624 177.92C255.131 176.96 253.944 175.613 253.064 173.88C252.211 172.12 251.784 170.093 251.784 167.8ZM268.504 167.84C268.504 166.133 268.024 164.787 267.064 163.8C266.131 162.813 264.984 162.32 263.624 162.32C262.264 162.32 261.104 162.813 260.144 163.8C259.211 164.76 258.744 166.093 258.744 167.8C258.744 169.507 259.211 170.867 260.144 171.88C261.104 172.867 262.264 173.36 263.624 173.36C264.984 173.36 266.131 172.867 267.064 171.88C268.024 170.893 268.504 169.547 268.504 167.84ZM287.133 149.4V179H280.293V149.4H287.133Z" fill="#4A4A4A"/>
<path d="M129.98 132.794H99.0323V68.8367L129.98 48.2898V132.794Z" fill="#1E4D6B"/>
<path d="M168.355 132.563H137.407V32.2334L168.355 0V132.563ZM143.597 107.5V111.294H147.311V107.5H143.597Z" fill="#2D9CDB"/>
<path d="M177.02 132.563H207.968V68.6057L177.02 48.0588V132.563Z" fill="#1E4D6B"/>
<rect x="111.411" y="107.5" width="3.71371" height="3.79412" fill="white"/>
<rect x="111.411" y="97.3824" width="3.71371" height="3.79412" fill="white"/>
<rect x="143.597" y="69.5588" width="3.71371" height="3.79412" fill="white"/>
<rect x="151.024" y="96.1176" width="3.71371" height="3.79412" fill="white"/>
<rect x="158.452" y="78.4118" width="3.71371" height="3.79412" fill="white"/>
<rect x="184.448" y="96.1176" width="3.71371" height="3.79412" fill="white"/>
<rect x="184.448" y="78.4118" width="3.71371" height="3.79412" fill="white"/>
<rect x="194.351" y="78.4118" width="3.71371" height="3.79412" fill="white"/>
<rect x="144.835" y="44.2647" width="3.71371" height="3.79412" fill="white"/>
<rect x="151.024" y="55.6471" width="3.71371" height="3.79412" fill="white"/>
<rect x="158.452" y="107.5" width="3.71371" height="3.79412" fill="white"/>
<rect x="111.411" y="87.2647" width="3.71371" height="3.79412" fill="white"/>
</svg>
