<svg width="20" height="21" viewBox="0 0 20 21" fill="none" xmlns="http://www.w3.org/2000/svg">
<path d="M4.375 1.33875C4.20924 1.33875 4.05027 1.40459 3.93306 1.5218C3.81585 1.63901 3.75 1.79798 3.75 1.96375V18.2137C3.75 18.3795 3.81585 18.5385 3.93306 18.6557C4.05027 18.7729 4.20924 18.8387 4.375 18.8387H8.125V17.5887H5V2.58875H15V8.83875H16.25V1.96375C16.25 1.79798 16.1842 1.63901 16.0669 1.5218C15.9497 1.40459 15.7908 1.33875 15.625 1.33875H4.375Z" fill="white"/>
<path d="M6.25 6.33875H13.75V5.08875H6.25V6.33875ZM6.25 8.83875H11.25V7.58875H6.25V8.83875Z" fill="white"/>
<path fill-rule="evenodd" clip-rule="evenodd" d="M13.125 10.0887C11.9647 10.0887 10.8519 10.5497 10.0314 11.3702C9.21094 12.1906 8.75 13.3034 8.75 14.4637C8.75 15.6241 9.21094 16.7369 10.0314 17.5573C10.8519 18.3778 11.9647 18.8387 13.125 18.8387C14.2853 18.8387 15.3981 18.3778 16.2186 17.5573C17.0391 16.7369 17.5 15.6241 17.5 14.4637C17.5 13.3034 17.0391 12.1906 16.2186 11.3702C15.3981 10.5497 14.2853 10.0887 13.125 10.0887ZM12.5 11.9637V14.4637C12.4999 14.5459 12.5159 14.6272 12.5472 14.7032C12.5785 14.7791 12.6245 14.8481 12.6825 14.9062L14.5575 16.7812L15.4425 15.8962L13.75 14.205V11.9637H12.5Z" fill="white"/>
</svg>
